<svg xmlns="http://www.w3.org/2000/svg" version="1.1" viewBox="-5.0 -10.0 110.0 135.0">
 <g>
  <path d="m16.668 100h66.664c2.7617 0 5-2.2383 5-5v-71.668c0.054688-2.5742-0.96875-5.0547-2.8203-6.8438l-13.668-13.668c-1.7891-1.8516-4.2695-2.875-6.8438-2.8203h-48.332c-2.7617 0-5 2.2383-5 5v90c0 2.7617 2.2383 5 5 5zm66.668-3.332h-66.668c-0.92188 0-1.668-0.74609-1.668-1.668v-21.668h70v21.668c0 0.44141-0.17578 0.86719-0.48828 1.1797s-0.73828 0.48828-1.1797 0.48828zm-0.69141-78.332-9.3125-0.003907c-1.8398 0-3.332-1.4922-3.332-3.332v-9.3086zm-65.977-15.004h48.332c0.44141 0 0.86719 0.17578 1.1797 0.48828s0.48828 0.73828 0.48828 1.1797v10c0 1.7695 0.69922 3.4648 1.9531 4.7148 1.25 1.25 2.9453 1.9531 4.7109 1.9531h10c0.44141 0 0.86719 0.17578 1.1797 0.48828s0.48828 0.73438 0.48828 1.1758v46.668h-70v-65c0-0.92188 0.74609-1.668 1.668-1.668z"/>
  <path d="m37.5 80c1.1875 0 2.2109 0.83594 2.4492 2 0.18359 0.90234 1.0664 1.4844 1.9688 1.3008 0.90234-0.18359 1.4844-1.0664 1.3008-1.9688-0.59375-2.9414-3.3203-4.9531-6.3047-4.6484-2.9844 0.30078-5.2539 2.8164-5.2461 5.8164v5c-0.007813 3 2.2617 5.5156 5.2461 5.8164 2.9844 0.30469 5.7109-1.707 6.3047-4.6484 0.18359-0.90234-0.39844-1.7852-1.3008-1.9688-0.90234-0.18359-1.7852 0.39844-1.9688 1.3008-0.25391 1.2578-1.4219 2.1172-2.6992 1.9883-1.2773-0.12891-2.25-1.2031-2.25-2.4883v-5c0-1.3789 1.1211-2.5 2.5-2.5z"/>
  <path d="m37.707 60c4.8477 0.019531 9.1367-3.1445 10.551-7.7812 0.14844-0.42578 0.11328-0.89453-0.089843-1.293-0.20312-0.40234-0.5625-0.70703-0.99609-0.83984-0.42969-0.13281-0.89453-0.085938-1.2891 0.13281-0.39844 0.21484-0.6875 0.58203-0.80859 1.0195-1.125 3.6406-4.7461 5.9102-8.5156 5.3398-3.7695-0.56641-6.5586-3.8086-6.5586-7.6211v-11.25c0-3.8125 2.7891-7.0508 6.5586-7.6211 3.7695-0.57031 7.3906 1.7031 8.5156 5.3438 0.12109 0.43359 0.41406 0.79687 0.80859 1.0117 0.39453 0.21484 0.85938 0.26172 1.2891 0.12891 0.42969-0.13281 0.78516-0.43359 0.99219-0.83203 0.20313-0.40234 0.23828-0.86719 0.09375-1.293-1.6172-5.2148-6.8008-8.4648-12.199-7.6523-5.3984 0.81641-9.3906 5.457-9.3906 10.914v11.25c0.007812 6.0977 4.9453 11.035 11.039 11.043z"/>
  <path d="m55 83.332h-1.668v-1.6641c0-0.92188-0.74609-1.668-1.6641-1.668-0.92188 0-1.668 0.74609-1.668 1.668v1.668l-1.668-0.003907c-0.91797 0-1.6641 0.74609-1.6641 1.668s0.74609 1.668 1.6641 1.668h1.668v1.668-0.003907c0 0.92188 0.74609 1.668 1.668 1.668 0.91797 0 1.6641-0.74609 1.6641-1.668v-1.6641h1.668c0.92188 0 1.668-0.74609 1.668-1.668s-0.74609-1.668-1.668-1.668z"/>
  <path d="m68.332 83.332h-1.6641v-1.6641c0-0.92188-0.74609-1.668-1.668-1.668s-1.668 0.74609-1.668 1.668v1.668l-1.6641-0.003907c-0.92188 0-1.668 0.74609-1.668 1.668s0.74609 1.668 1.668 1.668h1.668v1.668l-0.003907-0.003907c0 0.92188 0.74609 1.668 1.668 1.668s1.668-0.74609 1.668-1.668v-1.6641h1.668-0.003907c0.92188 0 1.668-0.74609 1.668-1.668s-0.74609-1.668-1.668-1.668z"/>
  <path d="m62.773 58.234c0.17969 0.066406 0.36719 0.097656 0.55859 0.097656 0.70703 0 1.332-0.44141 1.5703-1.1055l8.332-23.332c0.17188-0.42188 0.16016-0.89453-0.023437-1.3086-0.1875-0.41406-0.53516-0.73438-0.96094-0.88672-0.42578-0.15234-0.89844-0.125-1.3047 0.078125s-0.71094 0.5625-0.84766 0.99609l-8.332 23.332c-0.30859 0.86719 0.14062 1.8203 1.0078 2.1289z"/>
  <path d="m55 56.609c0.92969-0.027344 1.6719-0.78906 1.668-1.7227 0-0.92188-0.74609-1.668-1.668-1.668s-1.668 0.74609-1.668 1.668v0.11328c0.003907 0.4375 0.17969 0.85156 0.49609 1.1562 0.3125 0.30469 0.73438 0.46484 1.1719 0.45312z"/>
  <path d="m55 48.391c0.92969-0.027344 1.6719-0.79297 1.668-1.7227 0-0.92188-0.74609-1.668-1.668-1.668s-1.668 0.74609-1.668 1.668v0.11328c0.003907 0.43359 0.17969 0.85156 0.49609 1.1562 0.3125 0.30078 0.73438 0.46484 1.1719 0.45312z"/>
 </g>
<text x="0.0" y="117.5" font-size="5.0" font-weight="bold" font-family="Arbeit Regular, Helvetica, Arial-Unicode, Arial, Sans-serif" fill="#000000">Created by Juicy Fish</text><text x="0.0" y="122.5" font-size="5.0" font-weight="bold" font-family="Arbeit Regular, Helvetica, Arial-Unicode, Arial, Sans-serif" fill="#000000">from Noun Project</text></svg>