<svg xmlns="http://www.w3.org/2000/svg" version="1.1" viewBox="-5.0 -10.0 110.0 135.0">
 <g>
  <path d="m16.668 100h66.664c2.7617 0 5-2.2383 5-5v-71.668c0.054688-2.5742-0.96875-5.0547-2.8203-6.8438l-13.668-13.668c-1.7891-1.8516-4.2695-2.875-6.8438-2.8203h-48.332c-2.7617 0-5 2.2383-5 5v90c0 2.7617 2.2383 5 5 5zm66.668-3.332h-66.668c-0.92188 0-1.668-0.74609-1.668-1.668v-21.668h70v21.668c0 0.44141-0.17578 0.86719-0.48828 1.1797s-0.73828 0.48828-1.1797 0.48828zm-0.69141-78.332-9.3125-0.003907c-1.8398 0-3.332-1.4922-3.332-3.332v-9.3086zm-65.977-15.004h48.332c0.44141 0 0.86719 0.17578 1.1797 0.48828s0.48828 0.73828 0.48828 1.1797v10c0 1.7695 0.69922 3.4648 1.9531 4.7148 1.25 1.25 2.9453 1.9531 4.7109 1.9531h10c0.44141 0 0.86719 0.17578 1.1797 0.48828s0.48828 0.73438 0.48828 1.1758v46.668h-70v-65c0-0.92188 0.74609-1.668 1.668-1.668z"/>
  <path d="m75 76.668h-5c-0.92188 0-1.668 0.74609-1.668 1.6641v13.336c0 0.91797 0.74609 1.6641 1.668 1.6641s1.668-0.74609 1.668-1.6641v-5h3.332c2.7617 0 5-2.2383 5-5s-2.2383-5-5-5zm0 6.668-3.332-0.003907v-3.332h3.332c0.92188 0 1.668 0.74609 1.668 1.668 0 0.91797-0.74609 1.6641-1.668 1.6641z"/>
  <path d="m33.332 76.668c-0.91797 0-1.6641 0.74609-1.6641 1.6641v8.332l-2-2.668v0.003906c-0.32812-0.39844-0.82031-0.62891-1.3359-0.62891s-1.0039 0.23047-1.332 0.62891l-2 2.668v-8.3359c0-0.91797-0.74609-1.6641-1.668-1.6641-0.91797 0-1.6641 0.74609-1.6641 1.6641v13.336c0 0.71484 0.45703 1.3516 1.1367 1.5781 0.68359 0.23047 1.4297-0.003906 1.8633-0.57812l3.6641-4.8906 3.668 4.8906c0.31641 0.41797 0.80859 0.66406 1.332 0.66406 0.44141 0 0.86719-0.17578 1.1797-0.48828s0.48828-0.73438 0.48828-1.1758v-13.336c0-0.44141-0.17578-0.86328-0.48828-1.1758s-0.73828-0.48828-1.1797-0.48828z"/>
  <path d="m48.332 80c0.92188 0 1.668-0.74609 1.668-1.668 0-0.91797-0.74609-1.6641-1.668-1.6641h-8.332c-0.92188 0-1.668 0.74609-1.668 1.6641v13.336c0 0.44141 0.17578 0.86328 0.48828 1.1758s0.73828 0.48828 1.1797 0.48828h8.332c0.92188 0 1.668-0.74609 1.668-1.6641 0-0.92188-0.74609-1.668-1.668-1.668h-6.6641v-3.332h3.332c0.92188 0 1.668-0.74609 1.668-1.668s-0.74609-1.668-1.668-1.668h-3.332v-3.332z"/>
  <path d="m60 76.668h-5c-0.92188 0-1.668 0.74609-1.668 1.6641v13.336c0 0.44141 0.17578 0.86328 0.48828 1.1758s0.73828 0.48828 1.1797 0.48828h5c1.9727 0 3.7578-1.1602 4.5625-2.9609 0.80469-1.7969 0.47656-3.9023-0.83984-5.3711 1.3164-1.4688 1.6445-3.5742 0.83984-5.3711-0.80469-1.8008-2.5898-2.9609-4.5625-2.9609zm0 13.332h-3.332v-3.332h3.332c0.92188 0 1.668 0.74609 1.668 1.6641 0 0.92188-0.74609 1.668-1.668 1.668zm0-6.668h-3.332v-3.332h3.332c0.92188 0 1.668 0.74609 1.668 1.668 0 0.91797-0.74609 1.6641-1.668 1.6641z"/>
  <path d="m50 66.668c6.6289 0 12.988-2.6367 17.676-7.3242 4.6914-4.6875 7.3242-11.047 7.3242-17.676 0-6.6328-2.6328-12.992-7.3242-17.68-4.6875-4.6875-11.047-7.3203-17.676-7.3203s-12.988 2.6328-17.676 7.3203c-4.6914 4.6875-7.3242 11.047-7.3242 17.68 0.007812 6.625 2.6445 12.98 7.332 17.668 4.6836 4.6875 11.039 7.3242 17.668 7.332zm21.582-26.668h-8.293c-0.082031-2.8047-0.42578-5.5938-1.0312-8.332h6.9453c1.3516 2.5859 2.1602 5.4219 2.3789 8.332zm-23.25 15v7.9844c-2.3242-0.93359-4.5703-3.7617-6.1484-7.9844zm-7.168-3.332h0.003907c-0.66016-2.7344-1.0352-5.5273-1.1211-8.3359h8.2852v8.332zm10.504 11.316v-7.9844h6.1484c-1.5781 4.2227-3.8281 7.0508-6.1484 7.9844zm0-11.316v-8.3359h8.293-0.003907c-0.082031 2.8086-0.45703 5.6016-1.1172 8.3359zm11.625-8.332h8.293l-0.003907-0.003907c-0.21875 2.9102-1.0273 5.7461-2.3789 8.3359h-6.9453c0.60547-2.7422 0.94922-5.5312 1.0312-8.3359zm-3.332-3.332-8.293-0.003906v-8.332h7.168-0.003907c0.66406 2.7305 1.0391 5.5234 1.125 8.332zm-8.293-11.672v-7.9805c2.3242 0.93359 4.5703 3.7617 6.1484 7.9844zm-3.332-7.9844-0.003907 7.9844h-6.1484c1.5781-4.2227 3.8281-7.0508 6.1484-7.9805zm-0.003907 11.32v8.332h-8.2891c0.082031-2.8086 0.45703-5.6016 1.1172-8.332zm-11.625 8.332h-8.2891c0.21875-2.9102 1.0273-5.7461 2.3789-8.332h6.9453c-0.60547 2.7383-0.94922 5.5273-1.0312 8.332zm0 3.332h0.003907c0.082031 2.8047 0.42578 5.5938 1.0312 8.3359h-6.9453c-1.3516-2.5898-2.1602-5.4258-2.3789-8.3359zm-3.75 11.668h5.7188c0.76562 2.4219 1.8945 4.7109 3.3477 6.793-3.5703-1.4258-6.6992-3.7695-9.0664-6.793zm25.02 6.793c1.4531-2.082 2.582-4.3711 3.3477-6.793h5.7188c-2.3672 3.0234-5.4961 5.3672-9.0664 6.793zm9.0664-33.461h-5.7188c-0.76562-2.418-1.8945-4.707-3.3477-6.7891 3.5703 1.4219 6.6992 3.7656 9.0664 6.7891zm-25.02-6.7891c-1.4531 2.082-2.582 4.3711-3.3477 6.7891h-5.7188c2.3672-3.0234 5.4961-5.3672 9.0664-6.7891z"/>
 </g>
<text x="0.0" y="117.5" font-size="5.0" font-weight="bold" font-family="Arbeit Regular, Helvetica, Arial-Unicode, Arial, Sans-serif" fill="#000000">Created by Juicy Fish</text><text x="0.0" y="122.5" font-size="5.0" font-weight="bold" font-family="Arbeit Regular, Helvetica, Arial-Unicode, Arial, Sans-serif" fill="#000000">from Noun Project</text></svg>